<svg id="Layer_1" data-name="Layer 1" xmlns="http://www.w3.org/2000/svg" viewBox="0 0 128 128"><defs><style>.cls-1{fill:#36c;}.cls-2{fill:#7fcd0d;}</style></defs><title>Artboard 4</title><path class="cls-1" d="M72.29,52.7H35.77a4.55,4.55,0,0,1-4.53-4.53h0a4.55,4.55,0,0,1,4.53-4.53H72.29ZM34.93,31.3q3.41,5,6.33,10.3c.11.21.22.42.32.63H55.35l-1.09-1.16c-.71-.75-1.4-1.51-2-2.31a25.24,25.24,0,0,1-1.77-2.47q-3.11-5.17-5.76-10.63c-.88-1.81-1.72-3.65-2.5-5.53l-.58-1.41c-.18-.47-.37-.95-.55-1.43-.36-.95-.7-1.92-1-2.91a4.94,4.94,0,0,0-1.13-2c-2.28-2.41-6.7-2.3-9.87.25s-3.88,6.56-1.6,9c.72.75,1.38,1.53,2,2.32.33.39.64.79,1,1.19l.94,1.2C32.63,28,33.8,29.63,34.93,31.3Zm27.6,72.31h-11a3.33,3.33,0,0,0-3.33,3.33v.71A3.34,3.34,0,0,0,51.55,111h11Zm0-1.7V54.24H36.3v.07s2.46,11.36,2.46,15.15c0,3.34-2,10-2.46,13.35-.61,5,2,9.87,5.62,13.49a19,19,0,0,0,13.49,5.61Z"/><path class="cls-2" d="M71.89,107.94c.59-7.37,1.47-14.76,2.62-22.11A217.15,217.15,0,0,1,78.94,64c.94-3.6,2-7.17,3.3-10.67.64-1.74,1.34-3.47,2.13-5.16a39.08,39.08,0,0,1,2.7-4.91,39.43,39.43,0,0,0-3.33,4.56c-1,1.6-1.95,3.25-2.83,4.93-1.75,3.36-3.28,6.83-4.7,10.35A226.18,226.18,0,0,0,68.94,84.6q-3.12,11-5.43,22.15-.57,2.77-1.08,5.58c-4.12-10.12-9.55-27.87-6-45.24C62.33,37.77,93.59,27,93.59,27s12.93,24.68,6.46,50.84C95.33,97,79.52,111.1,71.35,117.31,71.46,114.21,71.65,111.08,71.89,107.94Z"/></svg>