<svg id="Layer_1" data-name="Layer 1" xmlns="http://www.w3.org/2000/svg" viewBox="0 0 128 128"><defs><style>.cls-1{fill:#7fcd0d;}.cls-2{fill:#36c;}</style></defs><title>Artboard 2</title><path class="cls-1" d="M28.62,50.08v14H42v7.17H28.62V85.39H21.19V71.25H7.78V64.08H21.19v-14Z"/><path class="cls-2" d="M108.39,55.93,82,40.16,55.68,55.93V92a7.55,7.55,0,0,0,7.53,7.53H66V61.24H82V99.5h18.83A7.55,7.55,0,0,0,108.39,92ZM93,78.85H85v-8h8Zm0-9.65H85v-8h8Zm9.73,9.65h-8v-8h8Zm0-9.65h-8v-8h8Zm17-13.61A3.22,3.22,0,0,1,117,57.12a3.14,3.14,0,0,1-1.69-.48L82,36.06,48.77,56.64a3.23,3.23,0,0,1-3.39-5.49l10.3-6.37V30.62a2.16,2.16,0,0,1,2.15-2.15H62a2.16,2.16,0,0,1,2.15,2.15v8.92L82,28.47l36.65,22.68A3.22,3.22,0,0,1,119.74,55.59Z"/></svg>