<svg id="Layer_1" data-name="Layer 1" xmlns="http://www.w3.org/2000/svg" viewBox="0 0 128 128"><defs><style>.cls-1{fill:#7fcd0d;}.cls-2{fill:#36c;}.cls-3{fill:#fff;}</style></defs><title>Artboard 5</title><path class="cls-1" d="M36.32,24.38v12H47.85v6.17H36.32V54.74H29.93V42.59H18.4V36.42H29.93v-12Z"/><polygon class="cls-2" points="33.12 81.91 45.88 94.45 50.17 90.08 46.04 86.03 47.58 84.46 51.71 88.52 54.38 85.81 50.25 81.75 51.79 80.18 55.92 84.24 58.59 81.53 54.45 77.47 55.99 75.9 60.12 79.96 62.79 77.25 58.66 73.19 60.2 71.62 64.33 75.68 67 72.97 62.87 68.91 64.4 67.34 68.54 71.4 71.2 68.69 67.07 64.63 68.61 63.06 72.74 67.12 75.41 64.41 71.28 60.35 72.82 58.78 76.95 62.84 79.62 60.13 75.48 56.07 77.02 54.5 81.15 58.56 83.82 55.85 79.69 51.79 81.23 50.22 85.36 54.28 88.03 51.57 83.9 47.51 85.43 45.94 89.56 50 95.09 44.38 82.33 31.84 33.12 81.91"/><rect class="cls-2" x="21.86" y="87.72" width="31.72" height="4.56" rx="0.85" ry="0.85" transform="translate(-52.91 53.81) rotate(-45.5)"/><rect class="cls-2" x="25.49" y="89.95" width="4.29" height="20.62" rx="0.85" ry="0.85" transform="translate(-63.24 49.69) rotate(-45.5)"/><path class="cls-2" d="M87.08,38l18.76-17.55,0,0L88.64,39.56Zm0,0,18.76-17.55,0,0L88.64,39.56Z"/><path class="cls-1" d="M107,82.63a8.79,8.79,0,1,1-17.58,0c0-6.37,8.79-21.54,8.79-21.54S107,76.26,107,82.63Z"/><path class="cls-3" d="M100.61,89a.79.79,0,0,1-.69-.42.78.78,0,0,1,.33-1.06A6.62,6.62,0,0,0,102.91,85a7.09,7.09,0,0,0,.41-5.77.78.78,0,0,1,.47-1,.8.8,0,0,1,1,.47,8.66,8.66,0,0,1-.53,7.08A8.24,8.24,0,0,1,101,88.93.77.77,0,0,1,100.61,89Z"/></svg>