<svg id="Layer_1" data-name="Layer 1" xmlns="http://www.w3.org/2000/svg" viewBox="0 0 128 128"><defs><style>.cls-1{fill:#36c;}.cls-2{fill:#7fcd0d;}.cls-3{fill:#fff;}</style></defs><title>Artboard 3</title><rect class="cls-1" x="12.48" y="24.42" width="29.42" height="79.16" rx="14.71" ry="14.71"/><path class="cls-2" d="M12.48,64V88.87a14.75,14.75,0,0,0,14.71,14.71h0A14.75,14.75,0,0,0,41.9,88.87V64Z"/><rect class="cls-1" x="49.29" y="24.42" width="29.42" height="79.16" rx="14.71" ry="14.71"/><path class="cls-2" d="M49.29,64V39.13A14.75,14.75,0,0,1,64,24.42h0A14.75,14.75,0,0,1,78.71,39.13V64Z"/><rect class="cls-1" x="86.1" y="24.42" width="29.42" height="79.16" rx="14.71" ry="14.71"/><path class="cls-2" d="M86.1,64V88.87a14.75,14.75,0,0,0,14.71,14.71h0a14.75,14.75,0,0,0,14.71-14.71V64Z"/><rect class="cls-3" x="14.89" y="34.61" width="2.83" height="27.02" rx="1.41" ry="1.41"/><rect class="cls-3" x="14.89" y="66.38" width="2.83" height="27.02" rx="1.41" ry="1.41"/><rect class="cls-3" x="52.21" y="34.77" width="2.83" height="27.02" rx="1.41" ry="1.41"/><rect class="cls-3" x="52.21" y="66.54" width="2.83" height="27.02" rx="1.41" ry="1.41"/><rect class="cls-3" x="88.6" y="34.61" width="2.83" height="27.02" rx="1.41" ry="1.41"/><rect class="cls-3" x="88.6" y="66.38" width="2.83" height="27.02" rx="1.41" ry="1.41"/></svg>